<svg width="150" height="150" viewBox="0 0 150 150" fill="none" xmlns="http://www.w3.org/2000/svg">
<path d="M114.787 48.75V75.625H141.662V90.5H114.787V117.5H99.975V90.5H72.975V75.625H99.975V48.75H114.787Z" fill="url(#paint0_linear_3_31)"/>
<path d="M44.3125 47.125V53.25H65.8125V67.3125H44.3125V123.25H26V67.3125H9V53.25H26V48.375C26 39.9583 27.75 34.125 31.25 30.875C34.75 27.625 41.25 26 50.75 26H65.8125V40.0625H51.5C48.75 40.0625 46.875 40.5625 45.875 41.5625C44.9167 42.5625 44.3958 44.4167 44.3125 47.125Z" fill="url(#paint1_linear_3_31)"/>
<defs>
<linearGradient id="paint0_linear_3_31" x1="107.319" y1="48.75" x2="107.319" y2="117.5" gradientUnits="userSpaceOnUse">
<stop stop-color="#00A1DB"/>
<stop offset="1" stop-color="#CAF1FF"/>
</linearGradient>
<linearGradient id="paint1_linear_3_31" x1="37.4062" y1="26" x2="37.4063" y2="123.25" gradientUnits="userSpaceOnUse">
<stop stop-color="#00A1DB"/>
<stop offset="1" stop-color="#CAF1FF"/>
</linearGradient>
</defs>
</svg>
